<?xml version="1.0" standalone="no"?>
<!DOCTYPE svg PUBLIC "-//W3C//DTD SVG 1.1//EN" "http://www.w3.org/Graphics/SVG/1.1/DTD/svg11.dtd" >
<svg xmlns="http://www.w3.org/2000/svg">
<metadata>
Created by FontForge 20120731 at Thu Aug 25 10:39:55 2016
 By admin
</metadata>
<defs>
<font id="iconfont" horiz-adv-x="1024" >
  <font-face 
    font-family="iconfont"
    font-weight="500"
    font-stretch="normal"
    units-per-em="1024"
    panose-1="2 0 6 3 0 0 0 0 0 0"
    ascent="896"
    descent="-128"
    x-height="792"
    bbox="0 -224 1435 896.645"
    underline-thickness="50"
    underline-position="-100"
    unicode-range="U+0078-E7F0"
  />
<missing-glyph horiz-adv-x="374" 
d="M34 0v682h272v-682h-272zM68 34h204v614h-204v-614z" />
    <glyph glyph-name=".notdef" horiz-adv-x="374" 
d="M34 0v682h272v-682h-272zM68 34h204v614h-204v-614z" />
    <glyph glyph-name=".null" horiz-adv-x="0" 
 />
    <glyph glyph-name="nonmarkingreturn" horiz-adv-x="341" 
 />
    <glyph glyph-name="x" unicode="x" horiz-adv-x="1001" 
d="M281 543q-27 -1 -53 -1h-83q-18 0 -36.5 -6t-32.5 -18.5t-23 -32t-9 -45.5v-76h912v41q0 16 -0.5 30t-0.5 18q0 13 -5 29t-17 29.5t-31.5 22.5t-49.5 9h-133v-97h-438v97zM955 310v-52q0 -23 0.5 -52t0.5 -58t-10.5 -47.5t-26 -30t-33 -16t-31.5 -4.5q-14 -1 -29.5 -0.5
t-29.5 0.5h-32l-45 128h-439l-44 -128h-29h-34q-20 0 -45 1q-25 0 -41 9.5t-25.5 23t-13.5 29.5t-4 30v167h911zM163 247q-12 0 -21 -8.5t-9 -21.5t9 -21.5t21 -8.5q13 0 22 8.5t9 21.5t-9 21.5t-22 8.5zM316 123q-8 -26 -14 -48q-5 -19 -10.5 -37t-7.5 -25t-3 -15t1 -14.5
t9.5 -10.5t21.5 -4h37h67h81h80h64h36q23 0 34 12t2 38q-5 13 -9.5 30.5t-9.5 34.5q-5 19 -11 39h-368zM336 498v228q0 11 2.5 23t10 21.5t20.5 15.5t34 6h188q31 0 51.5 -14.5t20.5 -52.5v-227h-327z" />
    <glyph glyph-name="uniE601" unicode="&#xe601;" horiz-adv-x="1707" 
d="M1187 592l186 102q26 14 44 5t18 -35v-513q0 -27 -18 -35.5t-44 5.5l-186 101q-26 14 -44 33t-18 31v242q0 13 18 31.5t44 32.5zM116 713q0 28 19.5 47.5t46.5 19.5h800q27 0 46 -19.5t19 -47.5v-643q0 -27 -19 -46.5t-46 -19.5h-800q-27 0 -46.5 19.5t-19.5 46.5v643z
M347 485q41 0 70 29t29 70t-29 70t-70 29t-70 -29t-29 -70t29 -70t70 -29z" />
    <glyph glyph-name="uniE602" unicode="&#xe602;" 
d="M867 185q10 10 10 24.5t-10 25t-24.5 10.5t-24.5 -11l-1 1l-264 -264q-61 -49 -141 -45t-137 61t-61 137t45 141l384 395q39 25 86 20t81 -38.5t38.5 -80.5t-20.5 -86l-344 -344q-3 -5 -6 -8q-14 -14 -33.5 -14t-33 14t-13.5 33.5t13 32.5q4 4 8 7l271 272l3 3
q10 11 10 25.5t-10 24.5t-24.5 10t-25.5 -10l-1 -1v0l-273 -274q-4 -3 -8 -7q-34 -34 -34 -83t34.5 -83.5t83 -34.5t83.5 35l7 7l343 345q46 59 41 136t-59 131t-131 59t-136 -41l-384 -394q-70 -83 -66 -192.5t82 -186.5q76 -77 184.5 -82t190.5 63h1z" />
    <glyph glyph-name="uniE604" unicode="&#xe604;" 
d="M511.5 272q69.5 0 118.5 49t49 119v223q0 70 -49 119t-118.5 49t-118.5 -49t-49 -119v-223q0 -70 49 -119t118.5 -49zM819 426v0q0 17 -12.5 29.5t-29.5 12.5t-29.5 -12.5t-12.5 -29.5q0 -93 -65.5 -158.5t-158 -65.5t-158 65.5t-65.5 158.5q0 17 -12 29.5t-29.5 12.5
t-30 -12.5t-12.5 -29.5v0q0 -116 76.5 -202.5t189.5 -101.5v-101h-140q-17 0 -29.5 -12.5t-12.5 -29.5t12.5 -29.5t29.5 -12.5h363q18 0 30 12.5t12 29.5t-12 29.5t-30 12.5h-139v101q113 15 189 101.5t76 202.5z" />
    <glyph glyph-name="uniE614" unicode="&#xe614;" 
d="M463 -67l-51 51l399 400l-399 400l51 51l452 -451zM192 -67l-52 51l400 400l-400 400l52 51l451 -451z" />
    <glyph glyph-name="uniE61C" unicode="&#xe61c;" 
d="M520 -103q-98 0 -187.5 38t-154 102.5t-102.5 153.5t-38 187t38 187.5t102.5 154t154 102.5t187.5 38t187 -38t153.5 -102.5t102.5 -154t38 -187.5t-38 -187t-102.5 -153.5t-153.5 -102.5t-187 -38zM520 802q-115 0 -213 -56.5t-154.5 -154.5t-56.5 -213t56.5 -212.5
t154.5 -154t213 -56.5t212.5 56.5t154 154t56.5 212.5t-56.5 213t-154 154.5t-212.5 56.5zM335 270q3 -4 7.5 -10.5t21.5 -23t36.5 -29t51 -23t65.5 -10.5t67.5 10t56.5 24t41.5 28t27.5 24l9 10q2 0 5 -0.5t10.5 -3t13.5 -7t11 -14.5t5 -23q-3 -5 -9.5 -12.5t-29 -26.5
t-48.5 -34t-69.5 -27t-90.5 -12t-87.5 11.5t-64.5 27.5t-41 33.5t-23.5 28t-6.5 11.5v5q0 3 2 11.5t6 14.5t12.5 11.5t20.5 5.5v0v0zM368 574q-26 0 -44 -18.5t-18 -44.5t18 -44t44 -18t44.5 18.5t18.5 44t-18.5 44t-44.5 18.5v0v0zM690 574q-26 0 -44.5 -18.5t-18.5 -44.5
t18.5 -44t44.5 -18t44 18.5t18 44t-18 44t-44 18.5v0v0z" />
    <glyph glyph-name="uniE61D" unicode="&#xe61d;" 
d="M0 -212v1024h1024v-1024h-1024zM960 748h-896v-704h896v704zM448 236q1 7 3.5 18.5t11 44.5t18.5 63.5t27 67t35.5 63.5t44 45t52.5 18t52.5 -21t44.5 -55t35 -75t27 -82t18.5 -75t10.5 -55l4 -21h-640q0 4 1 11t5.5 27t10 38t16 40.5t23 38.5t31.5 26.5t41 10.5
q30 0 54 -13.5t37.5 -32t22 -37.5t11.5 -32zM288 428q-40 0 -68 28t-28 68t28 68t68 28t68 -28t28 -68t-28 -68t-68 -28z" />
    <glyph glyph-name="uniE629" unicode="&#xe629;" 
d="M397 333h77q5 0 8.5 3.5t3.5 9.5v76q0 6 -3.5 9.5t-8.5 3.5h-77q-6 0 -9.5 -3.5t-3.5 -9.5v-76q0 -6 3.5 -9.5t9.5 -3.5zM550 333h77q5 0 9 3.5t4 9.5v76q0 6 -4 9.5t-9 3.5h-77q-5 0 -8.5 -3.5t-3.5 -9.5v-76q0 -6 3.5 -9.5t8.5 -3.5zM243 486h77q5 0 9 4t4 9v77
q0 5 -4 9t-9 4h-77q-5 0 -9 -4t-4 -9v-77q0 -5 4 -9t9 -4zM550 486h77q5 0 9 4t4 9v77q0 5 -4 9t-9 4h-77q-5 0 -8.5 -4t-3.5 -9v-77q0 -5 3.5 -9t8.5 -4zM397 486h77q5 0 8.5 4t3.5 9v77q0 5 -3.5 9t-8.5 4h-77q-6 0 -9.5 -4t-3.5 -9v-77q0 -5 3.5 -9t9.5 -4zM512 896
q-104 0 -199 -40.5t-163.5 -109t-109 -163.5t-40.5 -199t40.5 -199t109 -163.5t163.5 -109t199 -40.5t199 40.5t163.5 109t109 163.5t40.5 199t-40.5 199t-109 163.5t-163.5 109t-199 40.5zM512 -77q-94 0 -179 36.5t-147 98.5t-98.5 147t-36.5 179t36.5 179t98.5 147
t147 98.5t179 36.5t179 -36.5t147 -98.5t98.5 -147t36.5 -179t-36.5 -179t-98.5 -147t-147 -98.5t-179 -36.5zM781 589h-77q-5 0 -9 -4t-4 -9v-77q0 -5 4 -9t9 -4h77q5 0 9 4t4 9v77q0 5 -4 9t-9 4zM333 346v76q0 6 -4 9.5t-9 3.5h-77q-5 0 -9 -3.5t-4 -9.5v-76q0 -6 4 -9.5
t9 -3.5h77q5 0 9 3.5t4 9.5zM781 435h-77q-5 0 -9 -3.5t-4 -9.5v-76q0 -6 4 -9.5t9 -3.5h77q5 0 9 3.5t4 9.5v76q0 6 -4 9.5t-9 3.5zM730 230h-436q-5 0 -8.5 -3.5t-3.5 -8.5v-26q0 -5 3.5 -9t8.5 -4h436q5 0 8.5 4t3.5 9v26q0 5 -3.5 8.5t-8.5 3.5z" />
    <glyph glyph-name="uniE62D" unicode="&#xe62d;" 
d="M698 473l-65 65l-325 -325q-40 -40 -40 -97t40 -97.5t97.5 -40.5t97.5 40l390 390q67 67 67 162t-67.5 162.5t-162.5 67.5t-162 -67l-409 -409q0 -1 -1 -1q-94 -94 -94 -226.5t94 -226.5t226.5 -94t226.5 94q0 1 1 1l279 279l-65 65l-279 -279q0 -1 -1 -1
q-67 -67 -161.5 -67t-161.5 67t-67 161.5t67 161.5l1 1l409 409q40 40 97 40t97.5 -40.5t40.5 -97.5t-40 -97l-390 -390q-13 -13 -32.5 -13t-32.5 13.5t-13 32.5t13 32z" />
    <glyph glyph-name="uniE62F" unicode="&#xe62f;" 
d="M686 -128h-348q-15 0 -25 10t-10 24.5t10 25t25 10.5h151v93q-116 0 -198 82t-82 197v70q0 10 7 16.5t17 6.5q9 0 16 -6.5t7 -16.5v-70q0 -96 68 -164.5t165 -68.5h46q97 0 165 68.5t68 164.5v70q0 10 7 16.5t16 6.5h1q9 0 16 -6.5t7 -16.5v-70q0 -115 -82 -197t-198 -82
v-93h151q15 0 25 -10.5t10 -25t-10 -24.5t-25 -10zM721 547v-210q0 -86 -61 -147.5t-148 -61.5t-148 61.5t-61 147.5v210h418zM635 407q10 0 17 7t7 16.5t-7 16.5t-17 7h-246q-10 0 -17 -7t-7 -16.5t7 -16.5t17 -7h246zM721 593v70q0 87 -61 148.5t-148 61.5t-148 -61.5
t-61 -148.5v-70h418z" />
    <glyph glyph-name="uniE631" unicode="&#xe631;" 
d="M941 -129h-853q-36 0 -61 25t-25 61v853q0 35 25 60t61 25h853q35 0 60 -25t25 -60v-853q0 -36 -25 -61t-60 -25zM711 29l-35 31q-8 8 -16 -1l-6 -7q-8 -8 1 -16l34 -31q9 -7 16 1l7 7q7 9 -1 16zM877 789h-725q-18 0 -30.5 -12.5t-12.5 -30.5v-434l95 104q21 22 50 22.5
t49 -21.5l309 -331q14 17 12.5 24.5t-20.5 28.5l-113 121l59 64q21 23 50 23t50 -22l269 -289v710q0 18 -12.5 30.5t-29.5 12.5zM730 457q-53 0 -90.5 37.5t-37.5 90.5t37.5 90.5t90.5 37.5t90.5 -37.5t37.5 -90.5t-37.5 -90.5t-90.5 -37.5z" />
    <glyph glyph-name="uniE643" unicode="&#xe643;" horiz-adv-x="1099" 
d="M593 892q-27 12 -51 -7l-274 -229l-219 1q-20 0 -34 -14t-14 -33l-1 -451q0 -20 14 -34t34 -14h221l273 -228q14 -11 31 -11q10 0 20 5q28 12 28 43v928q0 31 -28 44v0zM778 653q-17 8 -35.5 1.5t-27 -24t-2.5 -36t24 -27.5q4 -3 9 -6t18 -15.5t22.5 -27.5t17.5 -40.5
t8 -55.5q0 -50 -17.5 -105.5t-33 -84.5t-19.5 -31q-17 -9 -23.5 -27.5t2.5 -36.5q13 -26 43 -26q11 0 21 5q3 1 15 15.5t30.5 43.5t35.5 64.5t29 84.5t12 98q0 47 -13.5 88t-30 65t-38.5 43.5t-31 25.5t-16 9v0zM927 793q-17 11 -36 6.5t-30 -21t-6.5 -35.5t20.5 -30
q6 -5 15.5 -12.5t31 -33t38 -56.5t29.5 -82.5t13 -110t-12 -117t-29 -100.5t-35.5 -76.5t-30.5 -51t-14 -18.5q-17 -11 -21 -30.5t7 -35.5q14 -22 40 -22q14 0 26 8q5 3 20.5 22.5t40.5 61t48 92t39.5 122.5t16.5 145.5t-17.5 139t-40 105t-51 72t-41.5 43t-21 15.5v0z" />
    <glyph glyph-name="uniE653" unicode="&#xe653;" 
d="M675 296q-53 0 -92 -38l-34 59l44 8l118 263v152l-200 -345q15 -2 25.5 -13t10.5 -26q0 -16 -11.5 -27.5t-27.5 -11.5t-27.5 11.5t-11.5 27.5q0 15 10.5 26t24.5 13l-199 345v-152l117 -263l45 -8l-32 -54q-37 33 -86 33q-55 0 -93.5 -39t-38.5 -93.5t38.5 -93.5t93 -39
t93.5 39t39 94q0 39 -22 71l49 52l53 -57q-18 -31 -18 -66q0 -55 39 -94t93.5 -39t93 39t38.5 93.5t-38.5 93.5t-93.5 39zM349 91q-30 0 -51.5 21t-21.5 51.5t21.5 51.5t51.5 21t51 -21t21 -51.5t-21 -51.5t-51 -21zM675 91q-30 0 -51 21t-21 51.5t21 51.5t51 21t51.5 -21
t21.5 -51.5t-21.5 -51.5t-51.5 -21z" />
    <glyph glyph-name="uniE677" unicode="&#xe677;" 
d="M512 -98q-98 0 -187 38.5t-153.5 103t-103 153.5t-38.5 187t38.5 187t103 153.5t153.5 103t187 38.5t187 -38.5t153.5 -103t103 -153.5t38.5 -187t-38.5 -187t-103 -153.5t-153.5 -103t-187 -38.5zM512 808q-115 0 -212.5 -57t-154.5 -154.5t-57 -212.5t57 -212.5
t154.5 -154.5t212.5 -57t212.5 57t154.5 154.5t57 212.5t-57 212.5t-154.5 154.5t-212.5 57zM761 307h-38q-8 0 -14 6t-6 14v76q0 8 6 13.5t14 5.5h38q8 0 13.5 -5.5t5.5 -13.5v-76q0 -8 -5.5 -14t-13.5 -6zM761 480h-38q-8 0 -14 5.5t-6 13.5v76q0 8 6 14t14 6h38
q8 0 13.5 -6t5.5 -14v-76q0 -8 -5.5 -13.5t-13.5 -5.5zM608 307h-39q-7 0 -13 6t-6 14v76q0 8 6 13.5t13 5.5h39q8 0 13.5 -5.5t5.5 -13.5v-76q0 -8 -5.5 -14t-13.5 -6zM608 480h-39q-7 0 -13 5.5t-6 13.5v76q0 8 6 14t13 6h39q8 0 13.5 -6t5.5 -14v-76q0 -8 -5.5 -13.5
t-13.5 -5.5zM742 212v-19q0 -8 -5.5 -14t-13.5 -6h-422q-8 0 -13.5 6t-5.5 14v19q0 8 5.5 13.5t13.5 5.5h422q8 0 13.5 -5.5t5.5 -13.5zM455 307h-39q-8 0 -13.5 6t-5.5 14v76q0 8 5.5 13.5t13.5 5.5h39q7 0 13 -5.5t6 -13.5v-76q0 -8 -6 -14t-13 -6zM455 480h-39
q-8 0 -13.5 5.5t-5.5 13.5v76q0 8 5.5 14t13.5 6h39q7 0 13 -6t6 -14v-76q0 -8 -6 -13.5t-13 -5.5zM301 307h-38q-8 0 -13.5 6t-5.5 14v76q0 8 5.5 13.5t13.5 5.5h38q8 0 14 -5.5t6 -13.5v-76q0 -8 -6 -14t-14 -6zM301 480h-38q-8 0 -13.5 5.5t-5.5 13.5v76q0 8 5.5 14
t13.5 6h38q8 0 14 -6t6 -14v-76q0 -8 -6 -13.5t-14 -5.5z" />
    <glyph glyph-name="uniE68F" unicode="&#xe68f;" horiz-adv-x="1127" 
d="M990 -45h-859q-1 2 -7.5 0t-17 2.5t-20.5 11t-17 24t-7 43.5v737q0 4 0.5 9.5t5.5 19.5t13 25t25.5 19.5t40.5 8.5h301q2 1 4.5 1t10.5 -1t15.5 -4.5t18 -12.5t18.5 -22l46 -75q11 -12 35 -12v0h-1v0v0v0v0v0v0v0h1v0v0h1v0h1v0h1v0h1v0h1h1v0h1h1h1h1h1h1h1h1h1h1h1h1h1
h1h1h1h1h1h1h1h1h1h1h1h1h1h1h1h1h1h1h1h1h1h1h1h1h1h1h1h1h1h1h1h1h1h1h1h1h1h1h1h1h1h1h1h1h1h1h1h1h1h1h1h1h1h1h1h1h1h1h2h1h1h1h1h1h1h1h2h1h1h1h1h1h2h1h1h1h1h1h2h1h1h1h2h1h1h1h1h2h1h1h2h1h1h1h2h1h1h1h2h1h1h2h1h1h2h1h1h2h1h1h2h1h1h2h1h2h1h1h2h1h1h2h1h2h1h2h1
h1h2h1h2h1h2h1h1h2h1h2h1h2h1h2h1h2h1h2h1h2h1h2h1h2h1h2h1h2h1h2h1h2h2h1h2h1h2h1h2h2h1h2h1h2h1h2h2h1h2h1h2h2h1h2h2h1h2h2h1h2h1h2h2h1h2h2h1h2h2h1h2h2h2h1h2h2h1h2h2h1h2h2h2h1h2h2h2h1h2h2h2h1h2h2h2h1h2h2h2h2h1h2h2h2h2h1h2h2h2h2h1h2h2h2h2h2h2h1h2h2h2h2h2h2h1h2
h2h2h8q1 -1 7.5 0.5t17 -2.5t20.5 -9.5t17 -20.5t7 -36v-630q0 -3 0.5 -8t-1.5 -18t-7.5 -23t-19.5 -18.5t-34 -8.5zM926 533q0 14 -10 23.5t-24 9.5h-669q-14 0 -24.5 -9.5t-10.5 -23.5v-3q0 -15 10.5 -25t24.5 -10h669q14 0 24 10t10 25v3z" />
    <glyph glyph-name="uniE711" unicode="&#xe711;" 
d="M836 380l-379 378l70 70l449 -448l-449 -449l-70 70zM423 387l-378 378l70 70l448 -448l-448 -449l-70 70z" />
    <glyph glyph-name="uniE721" unicode="&#xe721;" 
d="M767 669l-253 -327l-267 341q-3 -5 -8.5 -12.5t-15.5 -31t-13.5 -47.5t4 -57.5t28.5 -64.5q35 -49 103.5 -132.5t117 -140t51.5 -59.5l280 356l10 30q17 76 -37 145zM511.5 207q-16.5 0 -28 11.5t-11.5 27.5t11.5 27.5t28 11.5t28 -11.5t11.5 -27.5t-11.5 -27.5
t-28 -11.5zM677 199q-54 0 -92.5 -38.5t-38.5 -92.5t38.5 -92t92.5 -38t92 38t38 92t-38 92.5t-92 38.5zM676.5 2q-27.5 0 -46.5 19.5t-19 46.5t19 46.5t46.5 19.5t46.5 -19.5t19 -46.5t-19 -46.5t-46.5 -19.5zM349.5 199q-54.5 0 -92.5 -38.5t-38 -92.5t38 -92t92.5 -38
t92.5 38t38 92t-38 92.5t-92.5 38.5zM349.5 2q-27.5 0 -46.5 19.5t-19 46.5t19 46.5t46.5 19.5t46.5 -19.5t19 -46.5t-19 -46.5t-46.5 -19.5z" />
    <glyph glyph-name="uniE7C3" unicode="&#xe7c3;" horiz-adv-x="1027" 
d="M1026 5v641q0 22 -7.5 37.5t-17.5 21.5t-20.5 9t-17.5 3h-8h-33h-74h-102h-96h-75q-26 0 -21 0q-11 0 -20 3t-13 6l-3 4q-17 29 -47 74q-15 22 -32 32t-27 9h-10h-312q-24 0 -42 -8.5t-26.5 -21t-13 -24.5t-5.5 -21l-1 -8v-753q0 -74 55 -81h15h890q21 0 35 8t19.5 19
t8 22.5t2.5 19.5z" />
    <glyph glyph-name="uniE7F0" unicode="&#xe7f0;" horiz-adv-x="1390" 
d="M1308 793q-13 9 -78.5 -14t-124.5 -51l-59 -28v12q0 74 -52 126.5t-126 52.5h-685q-73 0 -125.5 -52.5t-52.5 -126.5v-602q0 -75 52.5 -127t125.5 -52h685q74 0 126 52t52 127v14q3 -1 8 -3.5t21.5 -10t32 -14.5t38.5 -17t41 -17t40.5 -15t36 -11.5t28 -6t16.5 1.5
q14 9 20 195t0.5 372t-20.5 195zM383 123v577l451 -288z" />
  </font>
</defs>
</svg>
